<svg width="50" height="44" viewBox="0 0 50 44" fill="none" xmlns="http://www.w3.org/2000/svg">
<g filter="url(#filter0_di_131_199)">
<path d="M7.76011 29.4933C6.15285 30.5648 4 29.4126 4 27.4809V8.51908C4 6.58741 6.15285 5.43524 7.76011 6.50674L8.42372 6.94915C11.4077 8.93846 14.9137 10 18.5 10H25.5V2.59201C25.5 0.84483 27.5829 -0.0623749 28.8622 1.12764L44.6387 15.8034C45.9143 16.99 45.9143 19.01 44.6387 20.1966L28.8622 34.8724C27.5829 36.0624 25.5 35.1552 25.5 33.408V26H19.2976C15.1912 26 11.1768 27.2155 7.76011 29.4933Z" fill="#F3568C"/>
</g>
<defs>
<filter id="filter0_di_131_199" x="0" y="0.588135" width="49.5957" height="42.8237" filterUnits="userSpaceOnUse" color-interpolation-filters="sRGB">
<feFlood flood-opacity="0" result="BackgroundImageFix"/>
<feColorMatrix in="SourceAlpha" type="matrix" values="0 0 0 0 0 0 0 0 0 0 0 0 0 0 0 0 0 0 127 0" result="hardAlpha"/>
<feOffset dy="4"/>
<feGaussianBlur stdDeviation="2"/>
<feComposite in2="hardAlpha" operator="out"/>
<feColorMatrix type="matrix" values="0 0 0 0 0 0 0 0 0 0 0 0 0 0 0 0 0 0 0.15 0"/>
<feBlend mode="normal" in2="BackgroundImageFix" result="effect1_dropShadow_131_199"/>
<feBlend mode="normal" in="SourceGraphic" in2="effect1_dropShadow_131_199" result="shape"/>
<feColorMatrix in="SourceAlpha" type="matrix" values="0 0 0 0 0 0 0 0 0 0 0 0 0 0 0 0 0 0 127 0" result="hardAlpha"/>
<feOffset dx="2" dy="4"/>
<feGaussianBlur stdDeviation="2"/>
<feComposite in2="hardAlpha" operator="arithmetic" k2="-1" k3="1"/>
<feColorMatrix type="matrix" values="0 0 0 0 1 0 0 0 0 1 0 0 0 0 1 0 0 0 0.34 0"/>
<feBlend mode="normal" in2="shape" result="effect2_innerShadow_131_199"/>
</filter>
</defs>
</svg>
