<?xml version="1.0" encoding="utf-8"?>
<svg viewBox="0 0 163 50" xmlns="http://www.w3.org/2000/svg" xmlns:xlink="http://www.w3.org/1999/xlink"><style>:root>svg{display:none}:root>svg:target{display:block}</style>

<svg id="vk" width="36" height="35" viewBox="0 0 36 35" fill="none" xmlns="http://www.w3.org/2000/svg">
<path fill-rule="evenodd" clip-rule="evenodd" d="M17.2965 23.7218H18.4888C18.6984 23.6892 18.896 23.5985 19.0611 23.4592C19.1774 23.2922 19.24 23.0908 19.24 22.884C19.24 22.884 19.24 21.1334 19.9911 20.8583C20.7422 20.5832 21.7318 22.5589 22.7691 23.3592C23.1599 23.6839 23.656 23.8364 24.1521 23.7843H26.9301C26.9301 23.7843 28.3966 23.7093 27.6932 22.5339C27.1559 21.576 26.457 20.7285 25.6305 20.0329C23.8898 18.3448 24.1283 18.6199 26.2386 15.6688C27.5024 13.8932 28.027 12.8052 27.872 12.3176C27.717 11.8299 26.8347 11.9174 26.8347 11.9174H23.7229C23.5787 11.9052 23.4342 11.9355 23.3056 12.0049C23.168 12.0937 23.0598 12.2246 22.9956 12.3801C22.655 13.2624 22.2567 14.1189 21.8033 14.9435C20.3965 17.4445 19.848 17.557 19.6096 17.4445C19.0969 17.0943 19.228 16.0064 19.228 15.2437C19.228 12.8428 19.5619 11.8299 18.5484 11.5798C18.07 11.4746 17.5827 11.4202 17.0939 11.4172C16.2428 11.3213 15.3822 11.3891 14.5543 11.6173C14.1847 11.8049 13.9224 12.2175 14.0893 12.2175C14.4402 12.2508 14.7651 12.4256 14.9955 12.7052C15.2049 13.1658 15.311 13.6705 15.3055 14.1808C15.3055 14.1808 15.4843 17.0193 14.8643 17.3695C14.447 17.6195 13.8747 17.1319 12.6228 14.8685C12.2093 14.0828 11.8391 13.2728 11.514 12.4426C11.4536 12.3026 11.364 12.1787 11.2517 12.08C11.041 11.9571 10.8008 11.9006 10.5602 11.9174H7.78221C7.78221 11.9174 7.34107 11.9174 7.18607 12.1425C7.03108 12.3676 7.18607 12.6802 7.18607 12.6802C7.18607 12.6802 9.57062 18.3823 12.1459 21.2459C12.7903 22.0169 13.5815 22.6378 14.4687 23.0686C15.3558 23.4993 16.3191 23.7304 17.2965 23.7468V23.7218Z" fill="currentColor" />
</svg>


</svg>
